<svg width="40" height="34" viewBox="0 0 40 34" fill="none" xmlns="http://www.w3.org/2000/svg">
<path d="M6.65321 15.3194C5.78531 15.9473 4.89426 16.7169 4.18674 17.6191C3.38741 18.6383 2.74943 19.923 2.77011 21.4167C2.79949 23.8694 3.70901 26.6078 6.29256 28.7562C8.83759 30.8725 12.8428 32.2797 18.8046 32.489C25.1483 32.7117 29.9216 29.5296 33.0349 26.4295C34.5972 24.8738 35.773 23.3097 36.5589 22.1351C36.9528 21.5464 37.2513 21.0516 37.4537 20.6995C37.5549 20.5233 37.6323 20.3825 37.6857 20.2831C37.7124 20.2334 37.7331 20.194 37.7479 20.1656L37.7655 20.1315L37.7709 20.1209L37.7728 20.1172L37.7735 20.1157C37.7738 20.1151 37.7741 20.1146 36.4348 19.4391L37.7741 20.1146L38.1349 19.3991L37.7408 18.7014C36.6208 16.7186 34.7997 15.4456 32.8585 14.6309C30.92 13.8174 28.765 13.4182 26.803 13.2335C25.4867 13.1095 24.2285 13.0796 23.1378 13.0943C23.7273 12.1577 24.2321 10.9814 24.2029 9.69375C24.1665 8.01861 23.9153 6.05664 22.7306 4.44845C21.4935 2.76929 19.4627 1.76175 16.5019 1.53698C13.4367 1.30429 11.4028 2.19352 9.96054 3.70202C9.28334 4.41035 8.78212 5.20785 8.37106 5.94805C8.17257 6.30549 7.98625 6.66623 7.8131 7.00149L7.79419 7.03811C7.61237 7.39011 7.44475 7.71353 7.27197 8.02137C7.23939 8.07879 7.21418 8.12103 7.02385 8.1594C6.74989 8.21464 6.38673 8.20128 5.81311 8.15788C5.77731 8.15517 5.73906 8.15213 5.69864 8.1489C5.24904 8.11308 4.53064 8.05584 3.91617 8.20478C3.52925 8.29857 3.06195 8.4964 2.68203 8.91954C2.29623 9.34924 2.13035 9.86627 2.08718 10.3581C1.96801 11.716 2.33123 13.0839 3.4076 14.0684C4.25029 14.8392 5.37482 15.2317 6.65321 15.3194Z" fill="#E31837" stroke="white" stroke-width="3"/>
</svg>
