<svg width="40" height="34" viewBox="0 0 40 34" fill="none" xmlns="http://www.w3.org/2000/svg">
<path d="M6.15317 15.3194C5.28528 15.9473 4.39423 16.7169 3.68671 17.6191C2.88738 18.6383 2.2494 19.923 2.27008 21.4167C2.29946 23.8694 3.20897 26.6078 5.79253 28.7562C8.33756 30.8725 12.3428 32.2797 18.3046 32.489C24.6482 32.7117 29.4216 29.5296 32.5348 26.4295C34.0971 24.8738 35.2729 23.3097 36.0589 22.1351C36.4528 21.5464 36.7513 21.0516 36.9536 20.6995C37.0549 20.5233 37.1323 20.3825 37.1857 20.2831C37.2124 20.2334 37.2331 20.194 37.2478 20.1656L37.2654 20.1315L37.2709 20.1209L37.2728 20.1172L37.2735 20.1157C37.2738 20.1151 37.2741 20.1146 35.9347 19.4391L37.2741 20.1146L37.6349 19.3991L37.2408 18.7014C36.1208 16.7186 34.2997 15.4456 32.3584 14.6309C30.42 13.8174 28.265 13.4182 26.303 13.2335C24.9867 13.1095 23.7284 13.0796 22.6378 13.0943C23.2273 12.1577 23.7321 10.9814 23.7028 9.69375C23.6665 8.01861 23.4153 6.05664 22.2305 4.44845C20.9935 2.76929 18.9627 1.76175 16.0019 1.53698C12.9366 1.30429 10.9027 2.19352 9.46051 3.70202C8.78331 4.41035 8.28209 5.20785 7.87103 5.94805C7.67253 6.30549 7.48622 6.66623 7.31307 7.00149L7.29416 7.03811C7.11234 7.39011 6.94472 7.71353 6.77194 8.02137C6.73936 8.07879 6.71415 8.12103 6.52382 8.1594C6.24986 8.21464 5.8867 8.20128 5.31308 8.15788C5.27728 8.15517 5.23903 8.15213 5.19861 8.1489C4.74901 8.11308 4.03061 8.05584 3.41614 8.20478C3.02922 8.29857 2.56192 8.4964 2.182 8.91954C1.7962 9.34924 1.63032 9.86627 1.58715 10.3581C1.46798 11.716 1.8312 13.0839 2.90757 14.0684C3.75026 14.8392 4.87479 15.2317 6.15317 15.3194Z" fill="#0070BB" stroke="white" stroke-width="3"/>
</svg>
