<svg width="126" height="130" viewBox="0 0 126 130" fill="none" xmlns="http://www.w3.org/2000/svg">
<path d="M6.56595 88.8697C4.48897 88.8697 2.54598 87.6955 1.64149 85.6826C0.435502 82.9652 1.64149 79.7781 4.38847 78.5703L8.44194 76.7587C11.1554 75.5845 14.3379 76.7587 15.5439 79.5097C16.7499 82.2271 15.5439 85.4142 12.7969 86.622L8.74343 88.4336C8.03994 88.7355 7.30295 88.9032 6.56595 88.9032V88.8697Z" fill="#E31837"/>
<path d="M9.51393 45.8942C8.87744 45.8942 8.24094 45.7936 7.60445 45.5252L3.45048 43.9484C0.670004 42.8748 -0.703485 39.7884 0.335007 37.0039C1.407 34.2194 4.52247 32.8439 7.26945 33.8839L11.4234 35.4607C14.2039 36.5342 15.5774 39.6207 14.5389 42.4052C13.7349 44.5523 11.6914 45.8607 9.51393 45.8607V45.8942Z" fill="#E31837"/>
<path d="M37.7877 16.0361C35.7107 16.0361 33.7678 14.8619 32.8633 12.849L31.0543 8.78968C29.8483 6.07226 31.0543 2.88516 33.8012 1.67742C36.5147 0.469676 39.6972 1.67742 40.9032 4.42839L42.7122 8.48774C43.9182 11.2052 42.7122 14.3923 39.9652 15.6C39.2617 15.9019 38.5247 16.0697 37.7877 16.0697V16.0361Z" fill="#E31837"/>
<path d="M78.8919 14.929C78.2554 14.929 77.6189 14.8284 76.9824 14.56C74.2019 13.4865 72.8284 10.4 73.8669 7.61549L75.4414 3.45549C76.5134 0.670969 79.6289 -0.738063 82.3759 0.335485C85.1563 1.40903 86.5298 4.49549 85.4913 7.28L83.9168 11.44C83.1129 13.5871 81.0694 14.8955 78.8919 14.8955V14.929Z" fill="#E31837"/>
<path d="M108.74 43.2439C106.697 43.2439 104.72 42.0697 103.816 40.0568C102.61 37.3394 103.816 34.1523 106.529 32.9445L110.583 31.1329C113.296 29.8916 116.479 31.1329 117.685 33.8503C118.891 36.5677 117.685 39.7548 114.971 40.9626L110.918 42.7742C110.214 43.1097 109.477 43.2439 108.74 43.2439Z" fill="#E31837"/>
<path d="M82.9788 95.0761H36.3137V111.112H82.9788V95.0761Z" fill="#E31837"/>
<path d="M59.663 130C67.569 130 73.9674 123.592 73.9674 115.675H45.3586C45.3586 123.592 51.7571 130 59.663 130Z" fill="#E31837"/>
<path d="M125.055 82.9652C123.447 75.1484 109.511 68.7742 98.9247 65.0168C99.1257 63.3729 99.3602 61.729 99.3602 60.0516C99.3602 49.4503 95.2397 39.4529 87.7358 31.9381C72.7614 16.9084 46.5981 16.9084 31.5903 31.9381C16.1134 47.4374 16.1134 72.6658 31.5903 88.1652L33.1647 89.7419H85.3908C84.1178 88.8697 82.5768 87.9303 80.6339 86.8903C67.837 80.0465 68.641 84.5084 63.9175 82.3948C60.266 80.7845 58.2225 78.2684 60.4 73.6387H60.4335C60.266 74.209 60.132 74.7794 60.1655 75.3832C60.333 78.369 62.8455 80.6503 65.7935 80.4826C72.5939 80.0129 82.1748 84.2065 90.6168 87.7961C98.7572 91.2516 106.596 94.6065 113.095 94.6065C116.412 94.6065 119.393 93.7342 121.872 91.5536C124.519 89.2387 125.657 86.1187 125.021 82.9652H125.055ZM55.4086 60.1858C55.4086 63.1716 52.9966 65.5871 50.0151 65.5871C47.0336 65.5871 44.6217 63.1716 44.6217 60.1858V51.2619C44.6217 48.2761 47.0336 45.8607 50.0151 45.8607C52.9966 45.8607 55.4086 48.2761 55.4086 51.2619V60.1858ZM66.1285 42.9084L74.3694 41.0297C77.2504 40.3587 80.1649 42.1703 80.8014 45.089C81.4379 48.0077 79.6624 50.8929 76.7479 51.5303L74.6374 52V60.1858C74.6374 63.1716 72.2254 65.5871 69.244 65.5871C66.2625 65.5871 63.8505 63.1716 63.8505 60.1858V52.2684C62.9795 51.5303 62.3095 50.5574 62.0415 49.3497C61.3715 46.431 63.1805 43.5458 66.095 42.9084H66.1285ZM94.8712 77.8994C95.2732 77.1277 95.6417 76.289 96.0102 75.4839C103.38 78.2348 110.181 81.5226 113.162 83.9045C109.611 83.6697 100.466 80.2813 94.8712 77.8994Z" fill="#E31837"/>
</svg>
