<svg width="159" height="130" viewBox="0 0 159 130" fill="none" xmlns="http://www.w3.org/2000/svg">
<path d="M8.3929 78.5451L4.36294 80.3401C1.66521 81.5367 0.466211 84.6944 1.66521 87.3869C2.56445 89.3812 4.49616 90.5446 6.5611 90.5446C7.29382 90.5446 8.02654 90.4117 8.72595 90.0793L12.7559 88.2843C15.4536 87.0877 16.6526 83.9299 15.4536 81.2375C14.2546 78.5451 11.0906 77.3153 8.3929 78.5451Z" fill="#0070BB"/>
<path d="M3.43045 46.0701L7.56032 47.6323C8.19312 47.865 8.82592 47.998 9.45873 47.998C11.6236 47.998 13.6219 46.7016 14.4545 44.5743C15.5203 41.8154 14.1215 38.7241 11.3904 37.6937L7.26057 36.1314C4.52953 35.0678 1.39882 36.4638 0.366352 39.1895C-0.699421 41.9483 0.699406 45.0396 3.43045 46.0701Z" fill="#0070BB"/>
<path d="M32.6726 15.2237C33.5718 17.2181 35.5036 18.3815 37.5685 18.3815C38.3012 18.3815 39.0339 18.2485 39.7333 17.9161C42.4311 16.7195 43.6301 13.5617 42.4644 10.8693L40.6659 6.84735C39.4669 4.15494 36.3029 2.95832 33.6052 4.1217C30.9074 5.31833 29.7084 8.47609 30.8741 11.1685L32.6726 15.1905V15.2237Z" fill="#0070BB"/>
<path d="M76.5358 16.9522C77.1686 17.1848 77.8014 17.3178 78.4342 17.3178C80.5991 17.3178 82.5974 16.0215 83.43 13.8941L84.9954 9.77242C86.0611 7.01354 84.6623 3.92226 81.9313 2.89183C79.2002 1.8614 76.0695 3.22423 75.0371 5.94987L73.4717 10.0716C72.4059 12.8305 73.8048 15.9217 76.5358 16.9522Z" fill="#0070BB"/>
<path d="M108.109 45.3388C108.842 45.3388 109.575 45.2058 110.274 44.8734L114.304 43.0785C117.002 41.8819 118.201 38.7241 117.002 36.0317C115.803 33.3393 112.639 32.1094 109.941 33.3393L105.911 35.1342C103.213 36.3309 102.014 39.4886 103.213 42.181C104.113 44.1754 106.044 45.3388 108.109 45.3388Z" fill="#0070BB"/>
<path d="M80.9321 95.3643H34.5377V111.253H80.9321V95.3643Z" fill="#0070BB"/>
<path d="M57.7516 130C65.6116 130 71.973 123.651 71.973 115.807H43.5302C43.5302 123.651 49.8915 130 57.7516 130Z" fill="#0070BB"/>
<path d="M121.165 56.9062C111.74 70.7006 98.584 69.9693 96.0528 69.6701C99.0503 56.8397 95.6531 42.8126 85.6615 32.8407C70.774 17.9494 44.7625 17.9494 29.8416 32.8407C22.3812 40.2864 18.2847 50.1585 18.2847 60.6955C18.2847 71.2324 22.3812 81.1046 29.8416 88.5502L31.407 90.1125H84.0961L85.6615 88.5502C88.3925 85.8246 90.4242 82.7665 92.1894 79.5423C92.6556 79.775 93.1552 80.0409 93.7214 80.1406C93.9545 80.1739 95.5532 80.4398 98.0178 80.4398C105.112 80.4398 119.466 78.3124 129.991 62.9225C131.656 60.496 131.023 57.1721 128.592 55.5101C126.161 53.8481 122.83 54.4797 121.165 56.9062ZM46.0614 43.2114C46.0614 40.2531 48.4594 37.8599 51.4235 37.8599C54.3877 37.8599 56.7857 40.2531 56.7857 43.2114V50.6903C56.7857 53.6487 54.3877 56.0419 51.4235 56.0419C48.4594 56.0419 46.0614 53.6487 46.0614 50.6903V43.2114ZM54.1879 80.2403C52.3228 81.0381 50.491 81.3705 48.7258 81.3705C43.4636 81.3705 38.8674 78.2792 36.1031 74.9885C33.0057 71.2656 32.2729 67.5428 34.1047 64.7507C35.6035 62.4904 38.4011 61.5929 41.2321 62.4239C42.6975 62.8893 43.8965 63.3879 44.8291 63.8865C47.1271 65.0831 49.0256 65.7811 50.8907 66.047C53.4219 66.4459 59.3835 67.3434 60.0496 72.5287C60.4826 75.8195 58.4843 78.4122 54.1546 80.2403H54.1879ZM75.903 50.7236C75.903 53.6819 73.505 56.0752 70.5408 56.0752C67.5767 56.0752 65.1787 53.6819 65.1787 50.7236V43.2447C65.1787 40.2864 67.5767 37.8931 70.5408 37.8931C73.505 37.8931 75.903 40.2864 75.903 43.2447V50.7236Z" fill="#0070BB"/>
<path d="M156.169 7.01354C153.704 3.49015 149.974 1.0969 145.744 0.299149C141.548 -0.53184 137.152 0.365628 133.621 2.75888C130.224 5.08565 127.726 8.742 126.694 13.2958V13.4288C126.028 17.8496 127.393 22.1043 130.457 26.8576L130.624 30.4142L137.851 31.8103L140.249 19.4119C140.449 18.448 141.381 17.7832 142.347 17.9826C143.313 18.182 143.979 19.1128 143.779 20.1099L141.381 32.5083L148.742 33.9376L150.64 29.9821C155.003 27.1567 157.868 23.5004 158.734 18.9133C159.533 14.7584 158.6 10.4705 156.169 7.01354ZM138.284 16.1212C137.485 16.6863 136.352 16.4868 135.753 15.6891L133.721 12.6975C133.188 11.8998 133.388 10.8029 134.187 10.2378C135.02 9.67271 136.119 9.87215 136.719 10.6699L138.75 13.6615C139.283 14.4592 139.083 15.5561 138.284 16.1212ZM143.213 12.9634C142.214 12.7972 141.581 11.8665 141.748 10.8693L142.414 7.3127C142.614 6.34875 143.546 5.75044 144.479 5.91664C145.478 6.08284 146.111 7.01355 145.944 8.01073L145.245 11.5674C145.045 12.5313 144.112 13.1296 143.18 12.9634H143.213ZM152.139 16.2209L149.142 18.2485C148.309 18.8136 147.177 18.5809 146.644 17.7832C146.077 16.9522 146.311 15.822 147.11 15.2902L150.107 13.2626C150.94 12.6975 152.072 12.9302 152.605 13.7612C153.172 14.5922 152.938 15.7223 152.139 16.2541V16.2209Z" fill="#0070BB"/>
<path d="M130.923 37.7602V37.8599C131.09 38.99 131.59 39.9872 132.356 40.7517C133.122 41.5495 134.154 42.1145 135.286 42.3472L140.182 43.2779H140.249C141.348 43.4109 142.48 43.1782 143.48 42.6464C144.445 42.1145 145.245 41.2835 145.711 40.2199L147.11 37.2948L130.757 34.137L130.923 37.7602Z" fill="#0070BB"/>
</svg>
