<svg width="289" height="91" viewBox="0 0 289 91" fill="none" xmlns="http://www.w3.org/2000/svg">
<path d="M103.08 38.79C103.08 39.64 104.09 40.08 105.12 40.08C106.15 40.08 107.16 39.64 107.16 38.79V20.79H111.75C112.57 20.79 113.04 19.91 113.04 18.94C113.04 18.06 112.63 17.12 111.75 17.12H98.46C97.58 17.12 97.17 18.06 97.17 18.94C97.17 19.95 97.64 20.79 98.46 20.79H103.08V38.79Z" fill="white"/>
<path d="M128.41 38.79V31.34C128.41 27.85 125.9 24.96 123.01 24.96C121.03 24.96 119.62 26.12 119.05 27.35V17.7C119.05 16.95 118.11 16.44 117.01 16.44C115.82 16.44 115 16.94 115 17.7V38.78C115 39.41 115.82 40.07 117.01 40.07C118.11 40.07 119.05 39.41 119.05 38.78V31.33C119.05 29.57 120.34 28.5 121.63 28.5C123.11 28.5 124.36 29.91 124.36 31.33V38.78C124.36 39.63 125.43 40.07 126.37 40.07C127.38 40.07 128.41 39.63 128.41 38.78V38.79Z" fill="white"/>
<path d="M133.44 17.86C132.18 17.86 131.21 18.77 131.21 19.84C131.21 20.91 132.18 21.82 133.44 21.82C134.7 21.82 135.64 20.88 135.64 19.84C135.64 18.8 134.67 17.86 133.44 17.86Z" fill="white"/>
<path d="M133.44 25.15C132.28 25.15 131.43 25.65 131.43 26.41V38.79C131.43 39.42 132.28 40.08 133.44 40.08C134.6 40.08 135.48 39.42 135.48 38.79V26.41C135.48 25.66 134.57 25.15 133.44 25.15Z" fill="white"/>
<path d="M147.99 31.34V38.79C147.99 39.64 149.06 40.08 150 40.08C151.01 40.08 152.04 39.64 152.04 38.79V31.34C152.04 27.85 149.53 24.96 146.64 24.96C144.54 24.96 143.03 26.12 142.43 27.35V26.41C142.43 25.66 141.61 25.15 140.64 25.15C139.45 25.15 138.63 25.65 138.63 26.41V38.79C138.63 39.42 139.45 40.08 140.64 40.08C141.74 40.08 142.68 39.42 142.68 38.79V31.34C142.68 29.58 143.97 28.51 145.26 28.51C146.77 28.51 147.99 29.92 147.99 31.34Z" fill="white"/>
<path d="M163.79 31.06L167.5 27.7C167.72 27.48 167.85 27.23 167.85 26.95C167.85 26.04 166.75 25 165.87 25C165.56 25 165.27 25.13 165.05 25.31L159.14 30.87V17.7C159.14 16.95 158.2 16.44 157.07 16.44C155.94 16.44 155.09 16.94 155.09 17.7V38.78C155.09 39.41 155.91 40.07 157.07 40.07C158.23 40.07 159.14 39.41 159.14 38.78V35.32L161.09 33.53L165.33 39.78C165.58 40.13 165.93 40.31 166.34 40.31C167.31 40.31 168.63 39.24 168.63 38.3C168.63 38.08 168.57 37.86 168.41 37.64L163.79 31.04V31.06Z" fill="white"/>
<path d="M187.96 16.45C186.83 16.45 185.92 16.95 185.92 17.71V27.36C185.23 26.13 183.81 24.97 181.87 24.97C178.79 24.97 176.28 27.86 176.28 31.35V33.93C176.28 37.29 178.86 40.37 181.78 40.37C183.79 40.37 185.52 39.18 186.15 37.89V38.8C186.15 39.43 186.97 40.09 187.97 40.09C189.13 40.09 189.98 39.43 189.98 38.8V17.72C189.98 16.97 189.13 16.46 187.97 16.46L187.96 16.45ZM185.91 34.48C185.91 35.14 184.65 36.8 183.05 36.8C181.57 36.8 180.32 35.35 180.32 33.91V31.33C180.32 29.92 181.55 28.5 183.08 28.5C184.43 28.5 185.91 29.57 185.91 31.33V34.47V34.48Z" fill="white"/>
<path d="M195.15 17.86C193.89 17.86 192.92 18.77 192.92 19.84C192.92 20.91 193.89 21.82 195.15 21.82C196.41 21.82 197.35 20.88 197.35 19.84C197.35 18.8 196.38 17.86 195.15 17.86Z" fill="white"/>
<path d="M195.15 25.15C193.99 25.15 193.14 25.65 193.14 26.41V38.79C193.14 39.42 193.99 40.08 195.15 40.08C196.31 40.08 197.19 39.42 197.19 38.79V26.41C197.19 25.66 196.28 25.15 195.15 25.15Z" fill="white"/>
<path d="M206.75 19.87H207.76C208.8 19.87 209.3 19.02 209.3 18.14C209.3 17.26 208.8 16.44 207.76 16.44H205.91C202.89 16.44 200.38 19.08 200.38 22.6V38.81C200.38 39.56 201.23 40.07 202.36 40.07C203.49 40.07 204.43 39.57 204.43 38.81V28.1H208.26C208.92 28.1 209.3 27.38 209.3 26.62C209.3 25.86 208.92 25.14 208.26 25.14H204.43V22.16C204.43 20.75 205.4 19.87 206.75 19.87Z" fill="white"/>
<path d="M217.43 19.87H218.44C219.48 19.87 219.98 19.02 219.98 18.14C219.98 17.26 219.48 16.44 218.44 16.44H216.59C213.57 16.44 211.06 19.08 211.06 22.6V38.81C211.06 39.56 211.91 40.07 213.04 40.07C214.17 40.07 215.11 39.57 215.11 38.81V28.1H218.94C219.6 28.1 219.98 27.38 219.98 26.62C219.98 25.86 219.6 25.14 218.94 25.14H215.11V22.16C215.11 20.75 216.08 19.87 217.43 19.87Z" fill="white"/>
<path d="M231.26 33.67C232.67 33.67 234.18 33.54 234.18 30.87C234.18 27.38 231.16 24.96 227.71 24.96C223.88 24.96 220.83 27.85 220.83 31.24V33.91C220.83 37.77 223.97 40.35 228.43 40.35C231.79 40.35 233.96 38.81 233.96 37.74C233.96 37.11 233.36 35.95 232.42 35.95C231.48 35.95 230.63 37.14 228.56 37.14C226.36 37.14 224.88 35.95 224.88 34.12V33.65H231.26V33.67ZM224.88 30.4C224.88 28.89 226.2 27.95 227.61 27.95C229.12 27.95 230.38 28.96 230.38 30.43C230.38 31.12 230.13 31.28 229.47 31.28H224.88V30.4Z" fill="white"/>
<path d="M245.24 24.96H244.27C242.54 24.96 241.03 26.34 240.41 27.69V26.4C240.41 25.65 239.59 25.14 238.59 25.14C237.43 25.14 236.61 25.64 236.61 26.4V38.78C236.61 39.41 237.43 40.07 238.59 40.07C239.75 40.07 240.66 39.41 240.66 38.78V33.16C240.66 30.3 242.45 28.51 244.27 28.51H245.24C245.99 28.51 246.72 27.69 246.72 26.72C246.72 25.75 246 24.96 245.24 24.96Z" fill="white"/>
<path d="M258 33.67C259.41 33.67 260.92 33.54 260.92 30.87C260.92 27.38 257.9 24.96 254.45 24.96C250.62 24.96 247.57 27.85 247.57 31.24V33.91C247.57 37.77 250.71 40.35 255.17 40.35C258.53 40.35 260.7 38.81 260.7 37.74C260.7 37.11 260.1 35.95 259.16 35.95C258.22 35.95 257.37 37.14 255.3 37.14C253.1 37.14 251.62 35.95 251.62 34.12V33.65H258V33.67ZM251.62 30.4C251.62 28.89 252.94 27.95 254.35 27.95C255.86 27.95 257.11 28.96 257.11 30.43C257.11 31.12 256.86 31.28 256.2 31.28H251.61V30.4H251.62Z" fill="white"/>
<path d="M271.35 24.96C269.25 24.96 267.74 26.12 267.14 27.35V26.41C267.14 25.66 266.32 25.15 265.35 25.15C264.16 25.15 263.34 25.65 263.34 26.41V38.79C263.34 39.42 264.16 40.08 265.35 40.08C266.45 40.08 267.39 39.42 267.39 38.79V31.34C267.39 29.58 268.68 28.51 269.97 28.51C271.48 28.51 272.7 29.92 272.7 31.34V38.79C272.7 39.64 273.77 40.08 274.71 40.08C275.72 40.08 276.75 39.64 276.75 38.79V31.34C276.75 27.85 274.24 24.96 271.35 24.96Z" fill="white"/>
<path d="M286.78 36.65H285.55C284.23 36.65 283.79 36.21 283.79 34.98V28.1H287.5C288.16 28.1 288.54 27.38 288.54 26.62C288.54 25.86 288.16 25.14 287.5 25.14H283.79V19.74C283.79 18.99 282.78 18.48 281.75 18.48C280.81 18.48 279.74 18.98 279.74 19.74V34.98C279.74 38.53 281.78 40.07 285.55 40.07H286.78C287.94 40.07 288.51 39.22 288.51 38.34C288.51 37.46 287.94 36.64 286.78 36.64V36.65Z" fill="white"/>
<path d="M106.19 48.11C106.05 47.65 105.48 47.44 104.9 47.44C104.32 47.44 103.77 47.65 103.63 48.11L100.67 57.75C100.65 57.81 100.64 57.87 100.64 57.9C100.64 58.39 101.36 58.73 101.9 58.73C102.24 58.73 102.5 58.62 102.57 58.33L103.15 56.29H106.66L107.24 58.33C107.32 58.62 107.58 58.73 107.91 58.73C108.45 58.73 109.17 58.38 109.17 57.9C109.17 57.85 109.15 57.81 109.14 57.75L106.18 48.11H106.19ZM103.57 54.73L104.9 50.02L106.23 54.73H103.56H103.57Z" fill="white"/>
<path d="M116.01 56.68C115.63 56.68 115.4 57.14 114.48 57.14C113.42 57.14 112.98 56.62 112.98 55.73V54.5C112.98 53.61 113.42 53.09 114.47 53.09C115.37 53.09 115.65 53.52 115.99 53.52C116.47 53.52 116.77 52.92 116.77 52.55C116.77 51.95 115.76 51.35 114.32 51.35C112 51.35 111.01 52.73 111.01 54.49V55.72C111.01 57.51 112.02 58.86 114.34 58.86C115.78 58.86 116.87 58.22 116.87 57.6C116.87 57.22 116.56 56.66 116.03 56.66L116.01 56.68Z" fill="white"/>
<path d="M121.5 51.36C120.41 51.36 119.05 51.83 119.05 52.46C119.05 52.9 119.28 53.44 119.72 53.44C120.09 53.44 120.29 52.97 121.47 52.97C122.48 52.97 122.82 53.72 122.82 54.38V54.58H122.19C120.07 54.58 118.62 55.07 118.62 56.83C118.62 58.23 119.52 58.87 120.61 58.87C121.7 58.87 122.39 58.29 122.94 57.66V58.1C122.94 58.45 123.32 58.73 123.83 58.73C124.38 58.73 124.8 58.45 124.8 58.1V54.34C124.8 52.79 123.9 51.35 121.5 51.35V51.36ZM122.82 55.93C122.82 56.68 122.04 57.4 121.41 57.4C120.95 57.4 120.6 57.14 120.6 56.57C120.6 55.71 121.57 55.6 122.59 55.6H122.82V55.92V55.93Z" fill="white"/>
<path d="M132.86 47.2C132.31 47.2 131.86 47.45 131.86 47.81V52.52C131.52 51.92 130.83 51.35 129.88 51.35C128.38 51.35 127.15 52.76 127.15 54.46V55.72C127.15 57.36 128.41 58.86 129.83 58.86C130.81 58.86 131.65 58.28 131.96 57.65V58.09C131.96 58.4 132.36 58.72 132.85 58.72C133.42 58.72 133.83 58.4 133.83 58.09V47.8C133.83 47.43 133.42 47.19 132.85 47.19L132.86 47.2ZM131.87 56C131.87 56.32 131.26 57.13 130.47 57.13C129.75 57.13 129.14 56.42 129.14 55.72V54.46C129.14 53.77 129.74 53.08 130.49 53.08C131.15 53.08 131.87 53.6 131.87 54.46V55.99V56Z" fill="white"/>
<path d="M141.36 55.6C142.05 55.6 142.79 55.54 142.79 54.24C142.79 52.54 141.32 51.36 139.63 51.36C137.76 51.36 136.27 52.77 136.27 54.43V55.73C136.27 57.62 137.8 58.87 139.98 58.87C141.62 58.87 142.68 58.12 142.68 57.6C142.68 57.29 142.39 56.73 141.93 56.73C141.47 56.73 141.06 57.31 140.04 57.31C138.97 57.31 138.25 56.73 138.25 55.84V55.61H141.36V55.6ZM138.24 54.01C138.24 53.27 138.88 52.81 139.57 52.81C140.31 52.81 140.92 53.3 140.92 54.02C140.92 54.36 140.8 54.43 140.48 54.43H138.24V54V54.01Z" fill="white"/>
<path d="M153.23 51.36C152.34 51.36 151.45 51.85 150.91 52.89C150.59 51.99 149.87 51.36 148.99 51.36C147.98 51.36 147.3 51.93 146.97 52.53V52.07C146.97 51.7 146.57 51.46 146.1 51.46C145.52 51.46 145.12 51.71 145.12 52.07V58.11C145.12 58.42 145.52 58.74 146.1 58.74C146.64 58.74 147.1 58.42 147.1 58.11V54.48C147.1 53.58 147.7 53.1 148.3 53.1C148.94 53.1 149.56 53.62 149.56 54.48V58.13C149.56 58.56 150.08 58.74 150.54 58.74C151.03 58.74 151.54 58.56 151.54 58.13V54.47C151.54 53.58 152.14 53.09 152.75 53.09C153.36 53.09 153.99 53.57 153.99 54.48V58.11C153.99 58.42 154.45 58.74 154.97 58.74C155.49 58.74 155.97 58.42 155.97 58.11V54.48C155.97 52.49 154.64 51.37 153.24 51.37L153.23 51.36Z" fill="white"/>
<path d="M163.53 51.34C163.32 51.34 163.09 51.43 163.01 51.68L161.52 56.26L159.68 51.68C159.6 51.43 159.37 51.34 159.11 51.34C158.6 51.34 157.79 51.77 157.79 52.29C157.79 52.38 157.82 52.47 157.85 52.55L160.49 58.19C160.38 60.03 158.97 60.44 158.3 60.44C157.93 60.44 157.79 60.82 157.79 61.27C157.79 62.01 158.19 62.11 158.69 62.11C161.43 62.11 161.86 60.1 162.58 58.26L164.82 52.54C164.85 52.46 164.87 52.37 164.87 52.31C164.87 51.76 164 51.33 163.52 51.33L163.53 51.34Z" fill="white"/>
<path d="M44.56 45.04C45.79 45.04 46.79 44.04 46.79 42.81V36.55C46.79 35.32 45.79 34.32 44.56 34.32C43.33 34.32 42.33 35.32 42.33 36.55V42.81C42.33 44.04 43.33 45.04 44.56 45.04Z" fill="white"/>
<path d="M0 12.16V66.42L41.22 90.21L82.44 66.42V12.16L41.22 0L0 12.16ZM32.58 16.66C32.94 16.89 33.25 17.22 33.44 17.65L34.19 19.33C34.69 20.45 34.19 21.77 33.06 22.27C32.77 22.4 32.46 22.46 32.15 22.46C31.3 22.46 30.48 21.97 30.11 21.14L29.36 19.46C28.86 18.34 29.36 17.02 30.49 16.52C31.19 16.2 31.97 16.28 32.58 16.66ZM16.62 31.15C16.95 30.29 17.76 29.75 18.63 29.72C18.92 29.71 19.21 29.76 19.5 29.86L21.22 30.52C22.37 30.96 22.95 32.25 22.51 33.4C22.17 34.29 21.33 34.83 20.43 34.83C20.16 34.83 19.89 34.78 19.63 34.68L17.91 34.02C16.9 33.64 16.34 32.6 16.51 31.58C16.53 31.43 16.57 31.29 16.63 31.14L16.62 31.15ZM20.11 52.43C19.82 52.56 19.51 52.62 19.2 52.62C18.99 52.62 18.78 52.59 18.57 52.53C17.96 52.35 17.44 51.92 17.16 51.3C16.66 50.18 17.16 48.86 18.29 48.36L19.97 47.61C20.25 47.48 20.54 47.42 20.83 47.41C20.9 47.41 20.96 47.42 21.03 47.43C21.11 47.43 21.18 47.43 21.26 47.45C21.96 47.57 22.6 48.04 22.91 48.74C23.41 49.86 22.91 51.18 21.78 51.68L20.1 52.43H20.11ZM41.22 69.07V69.04C41 69.06 40.79 69.11 40.56 69.11C37.28 69.11 34.63 66.45 34.63 63.18H46.49C46.49 66.23 44.18 68.74 41.22 69.07ZM50.24 61.28H30.88V54.64H50.24V61.28ZM65.82 50C65.48 50.89 64.64 51.43 63.74 51.43C63.47 51.43 63.2 51.38 62.94 51.28L61.22 50.62C60.07 50.18 59.49 48.89 59.94 47.74C60.38 46.59 61.68 46.02 62.82 46.46L64.54 47.12C65.69 47.56 66.27 48.85 65.82 50ZM60.65 29.47L62.33 28.72C63.45 28.22 64.77 28.72 65.27 29.85C65.77 30.97 65.27 32.29 64.14 32.79L62.46 33.54C62.17 33.67 61.86 33.73 61.55 33.73C60.7 33.73 59.88 33.24 59.51 32.41C59.01 31.29 59.51 29.97 60.64 29.47H60.65ZM47.11 18.98L47.77 17.26C48.21 16.11 49.51 15.54 50.65 15.98C51.8 16.42 52.38 17.71 51.93 18.86L51.27 20.58C50.93 21.47 50.09 22.01 49.19 22.01C48.92 22.01 48.65 21.96 48.39 21.86C47.24 21.42 46.66 20.13 47.11 18.98ZM52.2 28.5C55.31 31.61 57.02 35.74 57.02 40.14C57.02 44.54 55.31 48.67 52.2 51.78L51.55 52.43H29.58L28.93 51.78C22.51 45.36 22.51 34.92 28.93 28.5C29.33 28.1 29.76 27.72 30.19 27.37C30.26 27.31 30.33 27.27 30.4 27.21C30.78 26.92 31.17 26.63 31.58 26.38C31.61 26.36 31.63 26.35 31.66 26.33C34.51 24.56 37.88 23.76 41.22 23.89V23.86C45.26 24.01 49.25 25.55 52.2 28.5Z" fill="white"/>
<path d="M37.76 34.66C37.42 34.44 37.01 34.31 36.58 34.31C35.35 34.31 34.35 35.31 34.35 36.54V42.8C34.35 44.03 35.35 45.03 36.58 45.03C37.81 45.03 38.81 44.03 38.81 42.8V36.54C38.81 35.74 38.39 35.05 37.76 34.66Z" fill="white"/>
</svg>
