<svg width="454" height="454" viewBox="0 0 454 454" fill="none" xmlns="http://www.w3.org/2000/svg">
<rect x="14.5" y="14.6215" width="424.318" height="424.318" rx="15.5" fill="white" stroke="#724479" stroke-width="29"/>
<line x1="69.2938" y1="29.1215" x2="69.2938" y2="423.879" stroke="#724479" stroke-width="29"/>
<line x1="95.6483" y1="28" x2="95.6483" y2="423.879" stroke="#724479" stroke-width="29"/>
<line x1="122.003" y1="29.1215" x2="122.003" y2="423.879" stroke="#724479" stroke-width="29"/>
<line x1="148.357" y1="28.5607" x2="148.357" y2="423.879" stroke="#724479" stroke-width="29"/>
<line x1="174.712" y1="28.5607" x2="174.712" y2="423.879" stroke="#724479" stroke-width="29"/>
<line x1="201.066" y1="29.1215" x2="201.066" y2="423.879" stroke="#724479" stroke-width="29"/>
<line x1="227.421" y1="28" x2="227.421" y2="423.879" stroke="#724479" stroke-width="29"/>
<line x1="253.775" y1="28.5607" x2="253.775" y2="423.879" stroke="#724479" stroke-width="29"/>
<line x1="279.569" y1="27.9795" x2="280.13" y2="423.858" stroke="#724479" stroke-width="29"/>
<line x1="306.484" y1="28" x2="306.484" y2="423.879" stroke="#724479" stroke-width="29"/>
<line x1="332.839" y1="28" x2="332.839" y2="423.879" stroke="#724479" stroke-width="29"/>
<line x1="359.194" y1="28" x2="359.194" y2="423.879" stroke="#724479" stroke-width="29"/>
<line x1="385.548" y1="28" x2="385.548" y2="423.879" stroke="#724479" stroke-width="29"/>
<line x1="411.903" y1="28" x2="411.903" y2="423.879" stroke="#724479" stroke-width="29"/>
<line x1="424.318" y1="69.976" x2="29" y2="69.976" stroke="#724479" stroke-width="29"/>
<line x1="424.318" y1="96.3305" x2="29" y2="96.3305" stroke="#724479" stroke-width="29"/>
<line x1="424.318" y1="122.685" x2="29" y2="122.685" stroke="#724479" stroke-width="29"/>
<line x1="424.318" y1="149.04" x2="29" y2="149.04" stroke="#724479" stroke-width="29"/>
<line x1="424.318" y1="175.394" x2="29" y2="175.394" stroke="#724479" stroke-width="29"/>
<line x1="424.318" y1="201.749" x2="29" y2="201.749" stroke="#724479" stroke-width="29"/>
<line x1="424.318" y1="228.103" x2="29" y2="228.103" stroke="#724479" stroke-width="29"/>
<line x1="424.318" y1="254.458" x2="29" y2="254.458" stroke="#724479" stroke-width="29"/>
<line x1="424.318" y1="280.812" x2="29" y2="280.812" stroke="#724479" stroke-width="29"/>
<line x1="424.318" y1="307.167" x2="29" y2="307.167" stroke="#724479" stroke-width="29"/>
<line x1="424.318" y1="333.521" x2="29" y2="333.521" stroke="#724479" stroke-width="29"/>
<line x1="424.318" y1="359.876" x2="29" y2="359.876" stroke="#724479" stroke-width="29"/>
<line x1="424.318" y1="386.23" x2="29" y2="386.23" stroke="#724479" stroke-width="29"/>
<line x1="424.318" y1="412.585" x2="29" y2="412.585" stroke="#724479" stroke-width="29"/>
<rect x="81.709" y="56.0367" width="25.7938" height="25.7938" rx="1" fill="#395A9A"/>
<rect x="29" y="56.0367" width="25.7938" height="25.7938" rx="1" fill="#395A9A"/>
<rect x="134.418" y="56.0367" width="25.7938" height="25.7938" rx="1" fill="#395A9A"/>
<rect x="108.064" y="56.0367" width="25.7938" height="25.7938" rx="1" fill="#AB2E58"/>
<rect x="55.3545" y="56.0367" width="25.7938" height="25.7938" rx="1" fill="#AB2E58"/>
<rect x="187.127" y="56.0367" width="25.7938" height="25.7938" rx="1" fill="#395A9A"/>
<rect x="239.836" y="56.0367" width="25.7938" height="25.7938" rx="1" fill="#395A9A"/>
<rect x="213.482" y="56.0367" width="25.7938" height="25.7938" rx="1" fill="#AB2E58"/>
<rect x="160.773" y="56.0367" width="25.7938" height="25.7938" rx="1" fill="#AB2E58"/>
<rect x="292.545" y="56.0367" width="25.7938" height="25.7938" rx="1" fill="#395A9A"/>
<rect x="345.254" y="56.0367" width="25.7938" height="25.7938" rx="1" fill="#395A9A"/>
<rect x="318.9" y="56.0367" width="25.7938" height="25.7938" rx="1" fill="#AB2E58"/>
<rect x="266.191" y="56.0367" width="25.7938" height="25.7938" rx="1" fill="#AB2E58"/>
<rect x="397.963" y="56.0367" width="26.3545" height="25.7938" rx="1" fill="#395A9A"/>
<rect x="371.609" y="56.0367" width="25.7938" height="25.7938" rx="1" fill="#AB2E58"/>
<rect x="55.3545" y="29.1215" width="25.7938" height="26.3545" rx="1" fill="#395A9A"/>
<rect x="108.064" y="29.1215" width="25.7938" height="26.3545" rx="1" fill="#395A9A"/>
<rect x="81.709" y="29.1215" width="25.7938" height="26.3545" rx="1" fill="#AB2E58"/>
<rect x="29" y="29.1215" width="25.7938" height="26.3545" rx="1" fill="#AB2E58"/>
<rect x="160.773" y="29.1215" width="25.7938" height="26.3545" rx="1" fill="#E2F3FF"/>
<rect x="213.482" y="29.1215" width="25.7938" height="26.3545" rx="1" fill="#395A9A"/>
<rect x="160.773" y="29.1215" width="25.7938" height="26.3545" rx="1" fill="#395A9A"/>
<rect x="187.127" y="29.1215" width="25.7938" height="26.3545" rx="1" fill="#FFE3E7"/>
<rect x="134.418" y="29.1215" width="25.7938" height="26.3545" rx="1" fill="#AB2E58"/>
<rect x="266.191" y="29.1215" width="25.7938" height="26.3545" rx="1" fill="#395A9A"/>
<rect x="318.9" y="29.1215" width="25.7938" height="26.3545" rx="1" fill="#395A9A"/>
<rect x="292.545" y="29.1215" width="25.7938" height="26.3545" rx="1" fill="#AB2E58"/>
<rect x="239.836" y="29.1215" width="25.7938" height="26.3545" rx="1" fill="#AB2E58"/>
<rect x="187.127" y="29.1215" width="25.7938" height="26.3545" rx="1" fill="#AB2E58"/>
<rect x="371.609" y="29.1215" width="25.7938" height="26.3545" rx="1" fill="#395A9A"/>
<rect x="397.963" y="29.1215" width="26.3545" height="26.3545" rx="1" fill="#AB2E58"/>
<rect x="371.609" y="29.1215" width="25.7938" height="26.3545" rx="1" fill="#395A9A"/>
<rect x="397.963" y="29.1215" width="26.3545" height="26.3545" rx="1" fill="#AB2E58"/>
<rect x="345.254" y="29.1215" width="25.7938" height="26.3545" rx="1" fill="#AB2E58"/>
<rect x="55.3545" y="398.645" width="25.7938" height="26.3545" rx="1" fill="#395A9A"/>
<rect x="108.064" y="398.645" width="25.7938" height="26.3545" rx="1" fill="#395A9A"/>
<rect x="81.709" y="398.645" width="25.7938" height="26.3545" rx="1" fill="#AB2E58"/>
<rect x="29" y="398.645" width="25.7938" height="26.3545" rx="1" fill="#AB2E58"/>
<rect x="213.482" y="398.645" width="25.7938" height="26.3545" rx="1" fill="#395A9A"/>
<rect x="160.773" y="398.645" width="25.7938" height="26.3545" rx="1" fill="#395A9A"/>
<rect x="134.418" y="398.645" width="25.7938" height="26.3545" rx="1" fill="#AB2E58"/>
<rect x="266.191" y="398.645" width="25.7938" height="26.3545" rx="1" fill="#395A9A"/>
<rect x="318.9" y="398.645" width="25.7938" height="26.3545" rx="1" fill="#395A9A"/>
<rect x="292.545" y="398.645" width="25.7938" height="26.3545" rx="1" fill="#AB2E58"/>
<rect x="239.836" y="398.645" width="25.7938" height="26.3545" rx="1" fill="#AB2E58"/>
<rect x="187.127" y="398.645" width="25.7938" height="26.3545" rx="1" fill="#AB2E58"/>
<rect x="371.609" y="398.645" width="25.7938" height="26.3545" rx="1" fill="#395A9A"/>
<rect x="397.963" y="398.645" width="26.3545" height="26.3545" rx="1" fill="#AB2E58"/>
<rect x="345.254" y="398.645" width="25.7938" height="26.3545" rx="1" fill="#AB2E58"/>
<rect x="81.709" y="372.291" width="25.7938" height="25.7938" rx="1" fill="#395A9A"/>
<rect x="29" y="372.291" width="25.7938" height="25.7938" rx="1" fill="#395A9A"/>
<rect x="134.418" y="372.291" width="25.7938" height="25.7938" rx="1" fill="#395A9A"/>
<rect x="108.064" y="372.291" width="25.7938" height="25.7938" rx="1" fill="#AB2E58"/>
<rect x="55.3545" y="372.291" width="25.7938" height="25.7938" rx="1" fill="#AB2E58"/>
<rect x="187.127" y="372.291" width="25.7938" height="25.7938" rx="1" fill="#395A9A"/>
<rect x="239.836" y="372.291" width="25.7938" height="25.7938" rx="1" fill="#395A9A"/>
<rect x="213.482" y="372.291" width="25.7938" height="25.7938" rx="1" fill="#AB2E58"/>
<rect x="160.773" y="372.291" width="25.7938" height="25.7938" rx="1" fill="#AB2E58"/>
<rect x="292.545" y="372.291" width="25.7938" height="25.7938" rx="1" fill="#395A9A"/>
<rect x="345.254" y="372.291" width="25.7938" height="25.7938" rx="1" fill="#395A9A"/>
<rect x="318.9" y="372.291" width="25.7938" height="25.7938" rx="1" fill="#AB2E58"/>
<rect x="266.191" y="372.291" width="25.7938" height="25.7938" rx="1" fill="#AB2E58"/>
<rect x="397.963" y="372.291" width="26.3545" height="25.7938" rx="1" fill="#395A9A"/>
<rect x="371.609" y="372.291" width="25.7938" height="25.7938" rx="1" fill="#AB2E58"/>
<rect x="55.3545" y="345.376" width="25.7938" height="26.3545" rx="1" fill="#395A9A"/>
<rect x="108.064" y="345.376" width="25.7938" height="26.3545" rx="1" fill="#395A9A"/>
<rect x="81.709" y="345.376" width="25.7938" height="26.3545" rx="1" fill="#AB2E58"/>
<rect x="29" y="345.376" width="25.7938" height="26.3545" rx="1" fill="#AB2E58"/>
<rect x="213.482" y="345.376" width="25.7938" height="26.3545" rx="1" fill="#395A9A"/>
<rect x="160.773" y="345.376" width="25.7938" height="26.3545" rx="1" fill="#395A9A"/>
<rect x="134.418" y="345.376" width="25.7938" height="26.3545" rx="1" fill="#AB2E58"/>
<rect x="266.191" y="345.376" width="25.7938" height="26.3545" rx="1" fill="#395A9A"/>
<rect x="318.9" y="345.376" width="25.7938" height="26.3545" rx="1" fill="#395A9A"/>
<rect x="292.545" y="345.376" width="25.7938" height="26.3545" rx="1" fill="#AB2E58"/>
<rect x="239.836" y="345.376" width="25.7938" height="26.3545" rx="1" fill="#AB2E58"/>
<rect x="187.127" y="345.376" width="25.7938" height="26.3545" rx="1" fill="#AB2E58"/>
<rect x="371.609" y="345.376" width="25.7938" height="26.3545" rx="1" fill="#395A9A"/>
<rect x="397.963" y="345.376" width="26.3545" height="26.3545" rx="1" fill="#AB2E58"/>
<rect x="345.254" y="345.376" width="25.7938" height="26.3545" rx="1" fill="#AB2E58"/>
<rect x="81.709" y="319.582" width="25.7938" height="25.7938" rx="1" fill="#395A9A"/>
<rect x="29" y="319.582" width="25.7938" height="25.7938" rx="1" fill="#395A9A"/>
<rect x="134.418" y="319.582" width="25.7938" height="25.7938" rx="1" fill="#395A9A"/>
<rect x="108.064" y="319.582" width="25.7938" height="25.7938" rx="1" fill="#AB2E58"/>
<rect x="55.3545" y="319.582" width="25.7938" height="25.7938" rx="1" fill="#AB2E58"/>
<rect x="187.127" y="319.582" width="25.7938" height="25.7938" rx="1" fill="#395A9A"/>
<rect x="239.836" y="319.582" width="25.7938" height="25.7938" rx="1" fill="#395A9A"/>
<rect x="213.482" y="319.582" width="25.7938" height="25.7938" rx="1" fill="#AB2E58"/>
<rect x="160.773" y="319.582" width="25.7938" height="25.7938" rx="1" fill="#AB2E58"/>
<rect x="292.545" y="319.582" width="25.7938" height="25.7938" rx="1" fill="#395A9A"/>
<rect x="345.254" y="319.582" width="25.7938" height="25.7938" rx="1" fill="#395A9A"/>
<rect x="318.9" y="319.582" width="25.7938" height="25.7938" rx="1" fill="#AB2E58"/>
<rect x="266.191" y="319.582" width="25.7938" height="25.7938" rx="1" fill="#AB2E58"/>
<rect x="397.963" y="319.582" width="26.3545" height="25.7938" rx="1" fill="#395A9A"/>
<rect x="371.609" y="319.582" width="25.7938" height="25.7938" rx="1" fill="#AB2E58"/>
<rect x="55.3545" y="292.667" width="25.7938" height="26.3545" rx="1" fill="#395A9A"/>
<rect x="108.064" y="292.667" width="25.7938" height="26.3545" rx="1" fill="#395A9A"/>
<rect x="81.709" y="292.667" width="25.7938" height="26.3545" rx="1" fill="#AB2E58"/>
<rect x="29" y="292.667" width="25.7938" height="26.3545" rx="1" fill="#AB2E58"/>
<rect x="213.482" y="292.667" width="25.7938" height="26.3545" rx="1" fill="#395A9A"/>
<rect x="160.773" y="292.667" width="25.7938" height="26.3545" rx="1" fill="#395A9A"/>
<rect x="134.418" y="292.667" width="25.7938" height="26.3545" rx="1" fill="#AB2E58"/>
<rect x="266.191" y="292.667" width="25.7938" height="26.3545" rx="1" fill="#395A9A"/>
<rect x="318.9" y="292.667" width="25.7938" height="26.3545" rx="1" fill="#395A9A"/>
<rect x="292.545" y="292.667" width="25.7938" height="26.3545" rx="1" fill="#AB2E58"/>
<rect x="239.836" y="292.667" width="25.7938" height="26.3545" rx="1" fill="#AB2E58"/>
<rect x="187.127" y="292.667" width="25.7938" height="26.3545" rx="1" fill="#AB2E58"/>
<rect x="371.609" y="292.667" width="25.7938" height="26.3545" rx="1" fill="#395A9A"/>
<rect x="397.963" y="292.667" width="26.3545" height="26.3545" rx="1" fill="#AB2E58"/>
<rect x="345.254" y="292.667" width="25.7938" height="26.3545" rx="1" fill="#AB2E58"/>
<rect x="81.709" y="266.873" width="25.7938" height="25.7938" rx="1" fill="#395A9A"/>
<rect x="29" y="266.873" width="25.7938" height="25.7938" rx="1" fill="#395A9A"/>
<rect x="134.418" y="266.873" width="25.7938" height="25.7938" rx="1" fill="#395A9A"/>
<rect x="108.064" y="266.873" width="25.7938" height="25.7938" rx="1" fill="#AB2E58"/>
<rect x="55.3545" y="266.873" width="25.7938" height="25.7938" rx="1" fill="#AB2E58"/>
<rect x="187.127" y="266.873" width="25.7938" height="25.7938" rx="1" fill="#395A9A"/>
<rect x="239.836" y="266.873" width="25.7938" height="25.7938" rx="1" fill="#395A9A"/>
<rect x="213.482" y="266.873" width="25.7938" height="25.7938" rx="1" fill="#AB2E58"/>
<rect x="160.773" y="266.873" width="25.7938" height="25.7938" rx="1" fill="#AB2E58"/>
<rect x="292.545" y="266.873" width="25.7938" height="25.7938" rx="1" fill="#395A9A"/>
<rect x="345.254" y="266.873" width="25.7938" height="25.7938" rx="1" fill="#395A9A"/>
<rect x="318.9" y="266.873" width="25.7938" height="25.7938" rx="1" fill="#AB2E58"/>
<rect x="266.191" y="266.873" width="25.7938" height="25.7938" rx="1" fill="#AB2E58"/>
<rect x="397.963" y="266.873" width="26.3545" height="25.7938" rx="1" fill="#395A9A"/>
<rect x="371.609" y="266.873" width="25.7938" height="25.7938" rx="1" fill="#AB2E58"/>
<rect x="55.3545" y="239.958" width="25.7938" height="26.3545" rx="1" fill="#395A9A"/>
<rect x="108.064" y="239.958" width="25.7938" height="26.3545" rx="1" fill="#395A9A"/>
<rect x="81.709" y="239.958" width="25.7938" height="26.3545" rx="1" fill="#AB2E58"/>
<rect x="29" y="239.958" width="25.7938" height="26.3545" rx="1" fill="#AB2E58"/>
<rect x="213.482" y="239.958" width="25.7938" height="26.3545" rx="1" fill="#395A9A"/>
<rect x="160.773" y="239.958" width="25.7938" height="26.3545" rx="1" fill="#395A9A"/>
<rect x="134.418" y="239.958" width="25.7938" height="26.3545" rx="1" fill="#AB2E58"/>
<rect x="266.191" y="239.958" width="25.7938" height="26.3545" rx="1" fill="#395A9A"/>
<rect x="318.9" y="239.958" width="25.7938" height="26.3545" rx="1" fill="#395A9A"/>
<rect x="292.545" y="239.958" width="25.7938" height="26.3545" rx="1" fill="#AB2E58"/>
<rect x="239.836" y="239.958" width="25.7938" height="26.3545" rx="1" fill="#AB2E58"/>
<rect x="187.127" y="239.958" width="25.7938" height="26.3545" rx="1" fill="#AB2E58"/>
<rect x="371.609" y="239.958" width="25.7938" height="26.3545" rx="1" fill="#395A9A"/>
<rect x="397.963" y="239.958" width="26.3545" height="26.3545" rx="1" fill="#AB2E58"/>
<rect x="345.254" y="239.958" width="25.7938" height="26.3545" rx="1" fill="#AB2E58"/>
<rect x="81.709" y="214.164" width="25.7938" height="25.7938" rx="1" fill="#395A9A"/>
<rect x="29" y="214.164" width="25.7938" height="25.7938" rx="1" fill="#395A9A"/>
<rect x="134.418" y="214.164" width="25.7938" height="25.7938" rx="1" fill="#395A9A"/>
<rect x="108.064" y="214.164" width="25.7938" height="25.7938" rx="1" fill="#AB2E58"/>
<rect x="55.3545" y="214.164" width="25.7938" height="25.7938" rx="1" fill="#AB2E58"/>
<rect x="187.127" y="214.164" width="25.7938" height="25.7938" rx="1" fill="#395A9A"/>
<rect x="239.836" y="214.164" width="25.7938" height="25.7938" rx="1" fill="#395A9A"/>
<rect x="213.482" y="214.164" width="25.7938" height="25.7938" rx="1" fill="#AB2E58"/>
<rect x="160.773" y="214.164" width="25.7938" height="25.7938" rx="1" fill="#AB2E58"/>
<rect x="292.545" y="214.164" width="25.7938" height="25.7938" rx="1" fill="#395A9A"/>
<rect x="345.254" y="214.164" width="25.7938" height="25.7938" rx="1" fill="#395A9A"/>
<rect x="318.9" y="214.164" width="25.7938" height="25.7938" rx="1" fill="#AB2E58"/>
<rect x="266.191" y="214.164" width="25.7938" height="25.7938" rx="1" fill="#AB2E58"/>
<rect x="397.963" y="214.164" width="26.3545" height="25.7938" rx="1" fill="#395A9A"/>
<rect x="371.609" y="214.164" width="25.7938" height="25.7938" rx="1" fill="#AB2E58"/>
<rect x="55.3545" y="187.249" width="25.7938" height="26.3545" rx="1" fill="#395A9A"/>
<rect x="108.064" y="187.249" width="25.7938" height="26.3545" rx="1" fill="#395A9A"/>
<rect x="81.709" y="187.249" width="25.7938" height="26.3545" rx="1" fill="#AB2E58"/>
<rect x="29" y="187.249" width="25.7938" height="26.3545" rx="1" fill="#AB2E58"/>
<rect x="213.482" y="187.249" width="25.7938" height="26.3545" rx="1" fill="#395A9A"/>
<rect x="160.773" y="187.249" width="25.7938" height="26.3545" rx="1" fill="#395A9A"/>
<rect x="134.418" y="187.249" width="25.7938" height="26.3545" rx="1" fill="#AB2E58"/>
<rect x="266.191" y="187.249" width="25.7938" height="26.3545" rx="1" fill="#395A9A"/>
<rect x="318.9" y="187.249" width="25.7938" height="26.3545" rx="1" fill="#395A9A"/>
<rect x="292.545" y="187.249" width="25.7938" height="26.3545" rx="1" fill="#AB2E58"/>
<rect x="239.836" y="187.249" width="25.7938" height="26.3545" rx="1" fill="#AB2E58"/>
<rect x="187.127" y="187.249" width="25.7938" height="26.3545" rx="1" fill="#AB2E58"/>
<rect x="371.609" y="187.249" width="25.7938" height="26.3545" rx="1" fill="#395A9A"/>
<rect x="397.963" y="187.249" width="26.3545" height="26.3545" rx="1" fill="#AB2E58"/>
<rect x="345.254" y="187.249" width="25.7938" height="26.3545" rx="1" fill="#AB2E58"/>
<rect x="81.709" y="161.455" width="25.7938" height="25.7938" rx="1" fill="#395A9A"/>
<rect x="29" y="161.455" width="25.7938" height="25.7938" rx="1" fill="#395A9A"/>
<rect x="134.418" y="161.455" width="25.7938" height="25.7938" rx="1" fill="#395A9A"/>
<rect x="108.064" y="161.455" width="25.7938" height="25.7938" rx="1" fill="#AB2E58"/>
<rect x="55.3545" y="161.455" width="25.7938" height="25.7938" rx="1" fill="#AB2E58"/>
<rect x="187.127" y="161.455" width="25.7938" height="25.7938" rx="1" fill="#395A9A"/>
<rect x="239.836" y="161.455" width="25.7938" height="25.7938" rx="1" fill="#395A9A"/>
<rect x="213.482" y="161.455" width="25.7938" height="25.7938" rx="1" fill="#AB2E58"/>
<rect x="160.773" y="161.455" width="25.7938" height="25.7938" rx="1" fill="#AB2E58"/>
<rect x="292.545" y="161.455" width="25.7938" height="25.7938" rx="1" fill="#395A9A"/>
<rect x="345.254" y="161.455" width="25.7938" height="25.7938" rx="1" fill="#395A9A"/>
<rect x="318.9" y="161.455" width="25.7938" height="25.7938" rx="1" fill="#AB2E58"/>
<rect x="266.191" y="161.455" width="25.7938" height="25.7938" rx="1" fill="#AB2E58"/>
<rect x="397.963" y="161.455" width="26.3545" height="25.7938" rx="1" fill="#395A9A"/>
<rect x="371.609" y="161.455" width="25.7938" height="25.7938" rx="1" fill="#AB2E58"/>
<rect x="55.3545" y="134.54" width="25.7938" height="26.3545" rx="1" fill="#395A9A"/>
<rect x="108.064" y="134.54" width="25.7938" height="26.3545" rx="1" fill="#395A9A"/>
<rect x="81.709" y="134.54" width="25.7938" height="26.3545" rx="1" fill="#AB2E58"/>
<rect x="29" y="134.54" width="25.7938" height="26.3545" rx="1" fill="#AB2E58"/>
<rect x="213.482" y="134.54" width="25.7938" height="26.3545" rx="1" fill="#395A9A"/>
<rect x="160.773" y="134.54" width="25.7938" height="26.3545" rx="1" fill="#395A9A"/>
<rect x="134.418" y="134.54" width="25.7938" height="26.3545" rx="1" fill="#AB2E58"/>
<rect x="266.191" y="134.54" width="25.7938" height="26.3545" rx="1" fill="#395A9A"/>
<rect x="318.9" y="134.54" width="25.7938" height="26.3545" rx="1" fill="#395A9A"/>
<rect x="292.545" y="134.54" width="25.7938" height="26.3545" rx="1" fill="#AB2E58"/>
<rect x="239.836" y="134.54" width="25.7938" height="26.3545" rx="1" fill="#AB2E58"/>
<rect x="187.127" y="134.54" width="25.7938" height="26.3545" rx="1" fill="#AB2E58"/>
<rect x="371.609" y="134.54" width="25.7938" height="26.3545" rx="1" fill="#395A9A"/>
<rect x="397.963" y="134.54" width="26.3545" height="26.3545" rx="1" fill="#AB2E58"/>
<rect x="345.254" y="134.54" width="25.7938" height="26.3545" rx="1" fill="#AB2E58"/>
<rect x="81.709" y="108.746" width="25.7938" height="25.7938" rx="1" fill="#395A9A"/>
<rect x="29" y="108.746" width="25.7938" height="25.7938" rx="1" fill="#395A9A"/>
<rect x="134.418" y="108.746" width="25.7938" height="25.7938" rx="1" fill="#395A9A"/>
<rect x="108.064" y="108.746" width="25.7938" height="25.7938" rx="1" fill="#AB2E58"/>
<rect x="55.3545" y="108.746" width="25.7938" height="25.7938" rx="1" fill="#AB2E58"/>
<rect x="187.127" y="108.746" width="25.7938" height="25.7938" rx="1" fill="#395A9A"/>
<rect x="239.836" y="108.746" width="25.7938" height="25.7938" rx="1" fill="#395A9A"/>
<rect x="213.482" y="108.746" width="25.7938" height="25.7938" rx="1" fill="#AB2E58"/>
<rect x="160.773" y="108.746" width="25.7938" height="25.7938" rx="1" fill="#AB2E58"/>
<rect x="292.545" y="108.746" width="25.7938" height="25.7938" rx="1" fill="#395A9A"/>
<rect x="345.254" y="108.746" width="25.7938" height="25.7938" rx="1" fill="#395A9A"/>
<rect x="318.9" y="108.746" width="25.7938" height="25.7938" rx="1" fill="#AB2E58"/>
<rect x="266.191" y="108.746" width="25.7938" height="25.7938" rx="1" fill="#AB2E58"/>
<rect x="397.963" y="108.746" width="26.3545" height="25.7938" rx="1" fill="#395A9A"/>
<rect x="371.609" y="108.746" width="25.7938" height="25.7938" rx="1" fill="#AB2E58"/>
<rect x="55.3545" y="81.8305" width="25.7938" height="26.3545" rx="1" fill="#395A9A"/>
<rect x="108.064" y="81.8305" width="25.7938" height="26.3545" rx="1" fill="#395A9A"/>
<rect x="81.709" y="81.8305" width="25.7938" height="26.3545" rx="1" fill="#AB2E58"/>
<rect x="29" y="81.8305" width="25.7938" height="26.3545" rx="1" fill="#AB2E58"/>
<rect x="213.482" y="81.8305" width="25.7938" height="26.3545" rx="1" fill="#395A9A"/>
<rect x="160.773" y="81.8305" width="25.7938" height="26.3545" rx="1" fill="#395A9A"/>
<rect x="134.418" y="81.8305" width="25.7938" height="26.3545" rx="1" fill="#AB2E58"/>
<rect x="266.191" y="81.8305" width="25.7938" height="26.3545" rx="1" fill="#395A9A"/>
<rect x="318.9" y="81.8305" width="25.7938" height="26.3545" rx="1" fill="#395A9A"/>
<rect x="292.545" y="81.8305" width="25.7938" height="26.3545" rx="1" fill="#AB2E58"/>
<rect x="239.836" y="81.8305" width="25.7938" height="26.3545" rx="1" fill="#AB2E58"/>
<rect x="187.127" y="81.8305" width="25.7938" height="26.3545" rx="1" fill="#AB2E58"/>
<rect x="371.609" y="81.8305" width="25.7938" height="26.3545" rx="1" fill="#395A9A"/>
<rect x="397.963" y="81.8305" width="26.3545" height="26.3545" rx="1" fill="#AB2E58"/>
<rect x="345.254" y="81.8305" width="25.7938" height="26.3545" rx="1" fill="#AB2E58"/>
<g clip-path="url(#clip0_199_2)">
<path d="M244.139 315.032C245.211 316.104 247.071 316.104 248.143 315.032L253.218 310.054L258.293 315.032C259.364 316.104 261.224 316.104 262.296 315.032C263.367 313.961 263.367 312.101 262.296 311.029L257.318 306.051L262.296 301.073C263.367 300.001 263.367 298.141 262.296 297.069C261.224 295.998 259.364 295.998 258.293 297.069L253.218 302.048L248.143 297.069C247.071 295.998 245.218 295.998 244.139 297.069C243.068 298.148 243.068 300.001 244.139 301.073L249.117 306.051L244.139 311.029C243.068 312.198 243.068 313.961 244.139 315.032Z" fill="white"/>
</g>
<g clip-path="url(#clip1_199_2)">
<path d="M190.771 183.215C191.801 184.255 193.588 184.255 194.619 183.215L199.497 178.382L204.374 183.215C205.405 184.255 207.192 184.255 208.222 183.215C209.252 182.174 209.252 180.369 208.222 179.329L203.437 174.496L208.222 169.664C209.252 168.624 209.252 166.819 208.222 165.778C207.192 164.738 205.405 164.738 204.374 165.778L199.497 170.611L194.619 165.778C193.588 164.738 191.807 164.738 190.771 165.778C189.741 166.825 189.741 168.624 190.771 169.664L195.556 174.496L190.771 179.329C189.741 180.463 189.741 182.174 190.771 183.215Z" fill="white"/>
</g>
<path d="M246 226.5C246 230.666 249.112 234 253 234C256.888 234 260 230.666 260 226.5C260 222.334 256.893 219 253 219C249.176 219 246 222.334 246 226.5ZM253.069 222.89C254.949 222.89 256.443 224.486 256.443 226.505C256.443 228.525 254.954 230.12 253.069 230.12C251.184 230.12 249.695 228.525 249.695 226.505C249.631 224.491 251.184 222.89 253.069 222.89Z" fill="white"/>
<path d="M324 174.5C324 178.666 327.334 182 331.5 182C335.666 182 339 178.666 339 174.5C339 170.334 335.671 167 331.5 167C327.403 167 324 170.334 324 174.5ZM331.574 170.89C333.588 170.89 335.189 172.486 335.189 174.505C335.189 176.525 333.594 178.12 331.574 178.12C329.555 178.12 327.959 176.525 327.959 174.505C327.89 172.491 329.555 170.89 331.574 170.89Z" fill="white"/>
<path d="M219 252.5C219 256.666 222.112 260 226 260C229.888 260 233 256.666 233 252.5C233 248.334 229.893 245 226 245C222.176 245 219 248.334 219 252.5ZM226.069 248.89C227.949 248.89 229.443 250.486 229.443 252.505C229.443 254.525 227.954 256.12 226.069 256.12C224.184 256.12 222.695 254.525 222.695 252.505C222.631 250.491 224.184 248.89 226.069 248.89Z" fill="white"/>
<path d="M272 252.5C272 256.666 275.334 260 279.5 260C283.666 260 287 256.666 287 252.5C287 248.334 283.671 245 279.5 245C275.403 245 272 248.334 272 252.5ZM279.574 248.89C281.588 248.89 283.189 250.486 283.189 252.505C283.189 254.525 281.594 256.12 279.574 256.12C277.555 256.12 275.959 254.525 275.959 252.505C275.89 250.491 277.555 248.89 279.574 248.89Z" fill="white"/>
<path d="M324 305.5C324 309.666 327.334 313 331.5 313C335.666 313 339 309.666 339 305.5C339 301.334 335.671 298 331.5 298C327.403 298 324 301.334 324 305.5ZM331.574 301.89C333.588 301.89 335.189 303.486 335.189 305.505C335.189 307.525 333.594 309.12 331.574 309.12C329.555 309.12 327.959 307.525 327.959 305.505C327.89 303.491 329.555 301.89 331.574 301.89Z" fill="white"/>
<path d="M324 331.5C324 335.666 327.334 339 331.5 339C335.666 339 339 335.666 339 331.5C339 327.334 335.671 324 331.5 324C327.403 324 324 327.334 324 331.5ZM331.574 327.89C333.588 327.89 335.189 329.486 335.189 331.505C335.189 333.525 333.594 335.12 331.574 335.12C329.555 335.12 327.959 333.525 327.959 331.505C327.89 329.491 329.555 327.89 331.574 327.89Z" fill="white"/>
<path d="M298 279.5C298 283.666 301.334 287 305.5 287C309.666 287 313 283.666 313 279.5C313 275.334 309.671 272 305.5 272C301.403 272 298 275.334 298 279.5ZM305.574 275.89C307.588 275.89 309.189 277.486 309.189 279.505C309.189 281.525 307.594 283.12 305.574 283.12C303.555 283.12 301.959 281.525 301.959 279.505C301.89 277.491 303.555 275.89 305.574 275.89Z" fill="white"/>
<path d="M219 200C219 203.888 222.112 207 226 207C229.888 207 233 203.888 233 200C233 196.112 229.893 193 226 193C222.176 193 219 196.112 219 200ZM226.069 196.631C227.949 196.631 229.443 198.12 229.443 200.005C229.443 201.89 227.954 203.379 226.069 203.379C224.184 203.379 222.695 201.89 222.695 200.005C222.631 198.125 224.184 196.631 226.069 196.631Z" fill="white"/>
<path d="M220 174.5C220 178.666 223.112 182 227 182C230.888 182 234 178.666 234 174.5C234 170.334 230.893 167 227 167C223.176 167 220 170.334 220 174.5ZM227.069 170.89C228.949 170.89 230.443 172.486 230.443 174.505C230.443 176.525 228.954 178.12 227.069 178.12C225.184 178.12 223.695 176.525 223.695 174.505C223.631 172.491 225.184 170.89 227.069 170.89Z" fill="white"/>
<path d="M298 305.5C298 309.666 301.334 313 305.5 313C309.666 313 313 309.666 313 305.5C313 301.334 309.671 298 305.5 298C301.403 298 298 301.334 298 305.5ZM305.574 301.89C307.588 301.89 309.189 303.486 309.189 305.505C309.189 307.525 307.594 309.12 305.574 309.12C303.555 309.12 301.959 307.525 301.959 305.505C301.89 303.491 303.555 301.89 305.574 301.89Z" fill="white"/>
<path d="M192 252.5C192 256.666 195.334 260 199.5 260C203.666 260 207 256.666 207 252.5C207 248.334 203.671 245 199.5 245C195.403 245 192 248.334 192 252.5ZM199.574 248.89C201.588 248.89 203.189 250.486 203.189 252.505C203.189 254.525 201.594 256.12 199.574 256.12C197.555 256.12 195.959 254.525 195.959 252.505C195.89 250.491 197.555 248.89 199.574 248.89Z" fill="white"/>
<path d="M192 226.5C192 230.666 195.334 234 199.5 234C203.666 234 207 230.666 207 226.5C207 222.334 203.671 219 199.5 219C195.403 219 192 222.334 192 226.5ZM199.574 222.89C201.588 222.89 203.189 224.486 203.189 226.505C203.189 228.525 201.594 230.12 199.574 230.12C197.555 230.12 195.959 228.525 195.959 226.505C195.89 224.491 197.555 222.89 199.574 222.89Z" fill="white"/>
<g clip-path="url(#clip2_199_2)">
<path d="M243.811 288.173C244.896 289.268 246.778 289.268 247.862 288.173L252.996 283.087L258.131 288.173C259.215 289.268 261.097 289.268 262.182 288.173C263.266 287.078 263.266 285.178 262.182 284.083L257.145 278.996L262.182 273.91C263.266 272.815 263.266 270.914 262.182 269.819C261.097 268.724 259.215 268.724 258.131 269.819L252.996 274.906L247.862 269.819C246.778 268.724 244.903 268.724 243.811 269.819C242.727 270.921 242.727 272.815 243.811 273.91L248.848 278.996L243.811 284.083C242.727 285.277 242.727 287.078 243.811 288.173Z" fill="white"/>
</g>
<g clip-path="url(#clip3_199_2)">
<path d="M216.811 235.215C217.896 236.255 219.777 236.255 220.862 235.215L225.996 230.382L231.131 235.215C232.215 236.255 234.097 236.255 235.181 235.215C236.266 234.174 236.266 232.369 235.181 231.329L230.145 226.496L235.181 221.664C236.266 220.624 236.266 218.819 235.181 217.778C234.097 216.738 232.215 216.738 231.131 217.778L225.996 222.611L220.862 217.778C219.777 216.738 217.903 216.738 216.811 217.778C215.727 218.825 215.727 220.624 216.811 221.664L221.848 226.496L216.811 231.329C215.727 232.463 215.727 234.174 216.811 235.215Z" fill="white"/>
</g>
<g clip-path="url(#clip4_199_2)">
<path d="M243.811 262.215C244.896 263.255 246.777 263.255 247.862 262.215L252.996 257.382L258.131 262.215C259.215 263.255 261.097 263.255 262.181 262.215C263.266 261.174 263.266 259.369 262.181 258.329L257.145 253.496L262.181 248.664C263.266 247.624 263.266 245.819 262.181 244.778C261.097 243.738 259.215 243.738 258.131 244.778L252.996 249.61L247.862 244.778C246.777 243.738 244.903 243.738 243.811 244.778C242.727 245.825 242.727 247.624 243.811 248.664L248.848 253.496L243.811 258.329C242.727 259.463 242.727 261.174 243.811 262.215Z" fill="white"/>
</g>
<g clip-path="url(#clip5_199_2)">
<path d="M270.771 236.215C271.801 237.255 273.588 237.255 274.619 236.215L279.497 231.382L284.374 236.215C285.405 237.255 287.192 237.255 288.222 236.215C289.252 235.174 289.252 233.369 288.222 232.329L283.437 227.497L288.222 222.664C289.252 221.624 289.252 219.819 288.222 218.778C287.192 217.738 285.405 217.738 284.374 218.778L279.497 223.611L274.619 218.778C273.588 217.738 271.807 217.738 270.771 218.778C269.741 219.825 269.741 221.624 270.771 222.664L275.556 227.497L270.771 232.329C269.741 233.463 269.741 235.174 270.771 236.215Z" fill="white"/>
</g>
<g clip-path="url(#clip6_199_2)">
<path d="M270.771 288.173C271.801 289.268 273.588 289.268 274.619 288.173L279.497 283.087L284.374 288.173C285.405 289.268 287.192 289.268 288.222 288.173C289.252 287.078 289.252 285.178 288.222 284.083L283.437 278.996L288.222 273.91C289.252 272.815 289.252 270.914 288.222 269.819C287.192 268.724 285.405 268.724 284.374 269.819L279.497 274.906L274.619 269.819C273.588 268.724 271.807 268.724 270.771 269.819C269.741 270.921 269.741 272.815 270.771 273.91L275.556 278.996L270.771 284.083C269.741 285.277 269.741 287.078 270.771 288.173Z" fill="white"/>
</g>
<g clip-path="url(#clip7_199_2)">
<path d="M243.811 288.173C244.896 289.268 246.778 289.268 247.862 288.173L252.996 283.087L258.131 288.173C259.215 289.268 261.097 289.268 262.182 288.173C263.266 287.078 263.266 285.178 262.182 284.083L257.145 278.996L262.182 273.91C263.266 272.815 263.266 270.914 262.182 269.819C261.097 268.724 259.215 268.724 258.131 269.819L252.996 274.906L247.862 269.819C246.778 268.724 244.903 268.724 243.811 269.819C242.727 270.921 242.727 272.815 243.811 273.91L248.848 278.996L243.811 284.083C242.727 285.277 242.727 287.078 243.811 288.173Z" fill="white"/>
</g>
<g clip-path="url(#clip8_199_2)">
<path d="M190.771 315.215C191.801 316.255 193.588 316.255 194.618 315.215L199.496 310.382L204.374 315.215C205.404 316.255 207.192 316.255 208.222 315.215C209.252 314.174 209.252 312.369 208.222 311.329L203.437 306.496L208.222 301.664C209.252 300.624 209.252 298.819 208.222 297.778C207.192 296.738 205.404 296.738 204.374 297.778L199.496 302.611L194.618 297.778C193.588 296.738 191.807 296.738 190.771 297.778C189.74 298.825 189.74 300.624 190.771 301.664L195.555 306.496L190.771 311.329C189.74 312.463 189.74 314.174 190.771 315.215Z" fill="white"/>
</g>
<g clip-path="url(#clip9_199_2)">
<path d="M167.771 338.215C168.801 339.255 170.588 339.255 171.619 338.215L176.496 333.382L181.374 338.215C182.404 339.255 184.192 339.255 185.222 338.215C186.252 337.174 186.252 335.369 185.222 334.329L180.437 329.496L185.222 324.664C186.252 323.624 186.252 321.819 185.222 320.778C184.192 319.738 182.404 319.738 181.374 320.778L176.496 325.61L171.619 320.778C170.588 319.738 168.807 319.738 167.771 320.778C166.741 321.825 166.741 323.624 167.771 324.664L172.556 329.496L167.771 334.329C166.741 335.463 166.741 337.174 167.771 338.215Z" fill="white"/>
</g>
<g clip-path="url(#clip10_199_2)">
<path d="M349.771 341.215C350.801 342.255 352.588 342.255 353.619 341.215L358.497 336.382L363.374 341.215C364.405 342.255 366.192 342.255 367.222 341.215C368.252 340.174 368.252 338.369 367.222 337.329L362.437 332.497L367.222 327.664C368.252 326.624 368.252 324.819 367.222 323.778C366.192 322.738 364.405 322.738 363.374 323.778L358.497 328.611L353.619 323.778C352.588 322.738 350.807 322.738 349.771 323.778C348.741 324.825 348.741 326.624 349.771 327.664L354.556 332.497L349.771 337.329C348.741 338.463 348.741 340.174 349.771 341.215Z" fill="white"/>
</g>
<g clip-path="url(#clip11_199_2)">
<path d="M349.771 341.215C350.801 342.255 352.588 342.255 353.619 341.215L358.497 336.382L363.374 341.215C364.405 342.255 366.192 342.255 367.222 341.215C368.252 340.174 368.252 338.369 367.222 337.329L362.437 332.497L367.222 327.664C368.252 326.624 368.252 324.819 367.222 323.778C366.192 322.738 364.405 322.738 363.374 323.778L358.497 328.611L353.619 323.778C352.588 322.738 350.807 322.738 349.771 323.778C348.741 324.825 348.741 326.624 349.771 327.664L354.556 332.497L349.771 337.329C348.741 338.463 348.741 340.174 349.771 341.215Z" fill="white"/>
</g>
<g clip-path="url(#clip12_199_2)">
<path d="M296.811 209.215C297.896 210.255 299.777 210.255 300.862 209.215L305.996 204.382L311.131 209.215C312.215 210.255 314.097 210.255 315.181 209.215C316.266 208.174 316.266 206.369 315.181 205.329L310.145 200.496L315.181 195.664C316.266 194.624 316.266 192.819 315.181 191.778C314.097 190.738 312.215 190.738 311.131 191.778L305.996 196.61L300.862 191.778C299.777 190.738 297.903 190.738 296.811 191.778C295.727 192.825 295.727 194.624 296.811 195.664L301.848 200.496L296.811 205.329C295.727 206.463 295.727 208.174 296.811 209.215Z" fill="white"/>
</g>
<g clip-path="url(#clip13_199_2)">
<path d="M216.811 289.173C217.896 290.268 219.777 290.268 220.862 289.173L225.996 284.087L231.131 289.173C232.215 290.268 234.097 290.268 235.181 289.173C236.266 288.078 236.266 286.178 235.181 285.083L230.145 279.996L235.181 274.91C236.266 273.815 236.266 271.914 235.181 270.819C234.097 269.724 232.215 269.724 231.131 270.819L225.996 275.906L220.862 270.819C219.777 269.724 217.903 269.724 216.811 270.819C215.727 271.921 215.727 273.815 216.811 274.91L221.848 279.996L216.811 285.083C215.727 286.277 215.727 288.078 216.811 289.173Z" fill="white"/>
</g>
<defs>
<clipPath id="clip0_199_2">
<rect width="19.7675" height="19.5739" fill="white" transform="translate(243.338 296.268)"/>
</clipPath>
<clipPath id="clip1_199_2">
<rect width="19" height="19" fill="white" transform="translate(190 165)"/>
</clipPath>
<clipPath id="clip2_199_2">
<rect width="20" height="20" fill="white" transform="translate(243 269)"/>
</clipPath>
<clipPath id="clip3_199_2">
<rect width="20" height="19" fill="white" transform="translate(216 217)"/>
</clipPath>
<clipPath id="clip4_199_2">
<rect width="20" height="19" fill="white" transform="translate(243 244)"/>
</clipPath>
<clipPath id="clip5_199_2">
<rect width="19" height="19" fill="white" transform="translate(270 218)"/>
</clipPath>
<clipPath id="clip6_199_2">
<rect width="19" height="20" fill="white" transform="translate(270 269)"/>
</clipPath>
<clipPath id="clip7_199_2">
<rect width="20" height="20" fill="white" transform="translate(243 269)"/>
</clipPath>
<clipPath id="clip8_199_2">
<rect width="19" height="19" fill="white" transform="translate(190 297)"/>
</clipPath>
<clipPath id="clip9_199_2">
<rect width="19" height="19" fill="white" transform="translate(167 320)"/>
</clipPath>
<clipPath id="clip10_199_2">
<rect width="19" height="19" fill="white" transform="translate(349 323)"/>
</clipPath>
<clipPath id="clip11_199_2">
<rect width="19" height="19" fill="white" transform="translate(349 323)"/>
</clipPath>
<clipPath id="clip12_199_2">
<rect width="20" height="19" fill="white" transform="translate(296 191)"/>
</clipPath>
<clipPath id="clip13_199_2">
<rect width="20" height="20" fill="white" transform="translate(216 270)"/>
</clipPath>
</defs>
</svg>
